<svg height="1214" width="720" xmlns="http://www.w3.org/2000/svg">
<rect height="1214" fill="#555" width="720"></rect>
<text fill="#7f7" font-family="Courier New" font-size="12" xml:space="preserve">
<tspan x="10" y="26">7 megabytes installed</tspan>
<tspan x="10" y="42"></tspan>
<tspan x="10" y="58">node_modules</tspan>
<tspan x="10" y="74">└─┬ gulp-group-concat@1.1.5 </tspan>
<tspan x="10" y="90">  ├─┬ concat-with-sourcemaps@1.0.4 </tspan>
<tspan x="10" y="106">  │ └── source-map@0.5.6 </tspan>
<tspan x="10" y="122">  ├─┬ globule@0.2.0 </tspan>
<tspan x="10" y="138">  │ ├─┬ glob@3.2.11 </tspan>
<tspan x="10" y="154">  │ │ ├── inherits@2.0.3 </tspan>
<tspan x="10" y="170">  │ │ └── minimatch@0.3.0 </tspan>
<tspan x="10" y="186">  │ ├── lodash@2.4.2 </tspan>
<tspan x="10" y="202">  │ └─┬ minimatch@0.2.14 </tspan>
<tspan x="10" y="218">  │   ├── lru-cache@2.7.3 </tspan>
<tspan x="10" y="234">  │   └── sigmund@1.0.1 </tspan>
<tspan x="10" y="250">  ├─┬ gulp-util@3.0.8 </tspan>
<tspan x="10" y="266">  │ ├── array-differ@1.0.0 </tspan>
<tspan x="10" y="282">  │ ├── array-uniq@1.0.3 </tspan>
<tspan x="10" y="298">  │ ├── beeper@1.1.1 </tspan>
<tspan x="10" y="314">  │ ├─┬ chalk@1.1.3 </tspan>
<tspan x="10" y="330">  │ │ ├── ansi-styles@2.2.1 </tspan>
<tspan x="10" y="346">  │ │ ├── escape-string-regexp@1.0.5 </tspan>
<tspan x="10" y="362">  │ │ ├─┬ has-ansi@2.0.0 </tspan>
<tspan x="10" y="378">  │ │ │ └── ansi-regex@2.1.1 </tspan>
<tspan x="10" y="394">  │ │ ├── strip-ansi@3.0.1 </tspan>
<tspan x="10" y="410">  │ │ └── supports-color@2.0.0 </tspan>
<tspan x="10" y="426">  │ ├── dateformat@2.0.0 </tspan>
<tspan x="10" y="442">  │ ├─┬ fancy-log@1.3.0 </tspan>
<tspan x="10" y="458">  │ │ └── time-stamp@1.0.1 </tspan>
<tspan x="10" y="474">  │ ├─┬ gulplog@1.0.0 </tspan>
<tspan x="10" y="490">  │ │ └── glogg@1.0.0 </tspan>
<tspan x="10" y="506">  │ ├─┬ has-gulplog@0.1.0 </tspan>
<tspan x="10" y="522">  │ │ └── sparkles@1.0.0 </tspan>
<tspan x="10" y="538">  │ ├── lodash._reescape@3.0.0 </tspan>
<tspan x="10" y="554">  │ ├── lodash._reevaluate@3.0.0 </tspan>
<tspan x="10" y="570">  │ ├── lodash._reinterpolate@3.0.0 </tspan>
<tspan x="10" y="586">  │ ├─┬ lodash.template@3.6.2 </tspan>
<tspan x="10" y="602">  │ │ ├── lodash._basecopy@3.0.1 </tspan>
<tspan x="10" y="618">  │ │ ├── lodash._basetostring@3.0.1 </tspan>
<tspan x="10" y="634">  │ │ ├── lodash._basevalues@3.0.0 </tspan>
<tspan x="10" y="650">  │ │ ├── lodash._isiterateecall@3.0.9 </tspan>
<tspan x="10" y="666">  │ │ ├─┬ lodash.escape@3.2.0 </tspan>
<tspan x="10" y="682">  │ │ │ └── lodash._root@3.0.1 </tspan>
<tspan x="10" y="698">  │ │ ├─┬ lodash.keys@3.1.2 </tspan>
<tspan x="10" y="714">  │ │ │ ├── lodash._getnative@3.9.1 </tspan>
<tspan x="10" y="730">  │ │ │ ├── lodash.isarguments@3.1.0 </tspan>
<tspan x="10" y="746">  │ │ │ └── lodash.isarray@3.0.4 </tspan>
<tspan x="10" y="762">  │ │ ├── lodash.restparam@3.6.1 </tspan>
<tspan x="10" y="778">  │ │ └── lodash.templatesettings@3.1.1 </tspan>
<tspan x="10" y="794">  │ ├── minimist@1.2.0 </tspan>
<tspan x="10" y="810">  │ ├─┬ multipipe@0.1.2 </tspan>
<tspan x="10" y="826">  │ │ └─┬ duplexer2@0.0.2 </tspan>
<tspan x="10" y="842">  │ │   └── readable-stream@1.1.14 </tspan>
<tspan x="10" y="858">  │ ├── object-assign@3.0.0 </tspan>
<tspan x="10" y="874">  │ ├── replace-ext@0.0.1 </tspan>
<tspan x="10" y="890">  │ ├─┬ through2@2.0.3 </tspan>
<tspan x="10" y="906">  │ │ └─┬ readable-stream@2.2.9 </tspan>
<tspan x="10" y="922">  │ │   ├── buffer-shims@1.0.0 </tspan>
<tspan x="10" y="938">  │ │   ├── isarray@1.0.0 </tspan>
<tspan x="10" y="954">  │ │   ├── process-nextick-args@1.0.7 </tspan>
<tspan x="10" y="970">  │ │   ├── string_decoder@1.0.0 </tspan>
<tspan x="10" y="986">  │ │   └── util-deprecate@1.0.2 </tspan>
<tspan x="10" y="1002">  │ └─┬ vinyl@0.5.3 </tspan>
<tspan x="10" y="1018">  │   ├── clone@1.0.2 </tspan>
<tspan x="10" y="1034">  │   └── clone-stats@0.0.1 </tspan>
<tspan x="10" y="1050">  ├── lodash@3.10.1 </tspan>
<tspan x="10" y="1066">  ├─┬ through2@0.6.5 </tspan>
<tspan x="10" y="1082">  │ ├─┬ readable-stream@1.0.34 </tspan>
<tspan x="10" y="1098">  │ │ ├── core-util-is@1.0.2 </tspan>
<tspan x="10" y="1114">  │ │ ├── isarray@0.0.1 </tspan>
<tspan x="10" y="1130">  │ │ └── string_decoder@0.10.31 </tspan>
<tspan x="10" y="1146">  │ └── xtend@4.0.1 </tspan>
<tspan x="10" y="1162">  └─┬ vinyl-sourcemaps-apply@0.1.4 </tspan>
<tspan x="10" y="1178">    └─┬ source-map@0.1.43 </tspan>
<tspan x="10" y="1194">      └── amdefine@1.0.1</tspan>
</text>
</svg>
